<svg width="13" height="12" viewBox="0 0 13 12" fill="none" xmlns="http://www.w3.org/2000/svg">
<g id="ph:butterfly">
<path id="Vector" d="M1.59218 2.36625C1.76562 2.14219 2.10124 1.875 2.70312 1.875C3.49296 1.875 4.50593 2.40375 5.41296 3.28875C5.6723 3.54011 5.91045 3.81244 6.12499 4.10297V2.625C6.12499 2.52554 6.1645 2.43016 6.23483 2.35984C6.30516 2.28951 6.40054 2.25 6.49999 2.25C6.59945 2.25 6.69483 2.28951 6.76516 2.35984C6.83549 2.43016 6.87499 2.52554 6.87499 2.625V4.10297C7.08894 3.81251 7.32647 3.54019 7.58515 3.28875C8.49265 2.40375 9.50562 1.875 10.2969 1.875C10.8987 1.875 11.2344 2.14219 11.4078 2.36625C11.7275 2.77734 11.9787 3.495 11.4177 5.70375C11.1341 6.82078 10.5031 7.25063 9.98187 7.41094C10.2661 7.87251 10.3572 8.42744 10.2355 8.95568C10.1138 9.48391 9.78895 9.94298 9.33134 10.2336C8.87373 10.5242 8.32011 10.6229 7.79024 10.5085C7.26038 10.394 6.79687 10.0756 6.49999 9.62203C6.20311 10.0756 5.73961 10.394 5.20975 10.5085C4.67988 10.6229 4.12626 10.5242 3.66865 10.2336C3.21104 9.94298 2.88623 9.48391 2.76449 8.95568C2.64275 8.42744 2.73386 7.87251 3.01812 7.41094C2.49687 7.25156 1.8664 6.82078 1.58234 5.70375C1.26734 4.46438 1.02265 3.09844 1.59218 2.36625ZM8.18749 9.75C8.52027 9.74416 8.83851 9.61266 9.07833 9.38189C9.31816 9.15112 9.46181 8.83817 9.48044 8.50587C9.49907 8.17357 9.39131 7.84652 9.17879 7.59039C8.96626 7.33426 8.66471 7.168 8.33468 7.125C8.28504 7.12046 8.23681 7.10607 8.1928 7.08267C8.14879 7.05927 8.10988 7.02732 8.07836 6.98871C8.04684 6.9501 8.02333 6.90559 8.00921 6.85779C7.99509 6.80998 7.99064 6.75985 7.99613 6.7103C8.00161 6.66076 8.01692 6.61281 8.04115 6.56925C8.06538 6.52569 8.09806 6.4874 8.13726 6.45662C8.17646 6.42584 8.22141 6.40318 8.26947 6.38997C8.31754 6.37676 8.36775 6.37326 8.41718 6.37969C8.76774 6.41728 9.10263 6.54485 9.38937 6.75C9.78453 6.75422 10.4206 6.58266 10.6906 5.51906C10.8256 4.98703 11.2344 3.36844 10.8153 2.82656C10.7483 2.74031 10.6208 2.625 10.2969 2.625C9.01859 2.625 6.87499 4.72875 6.87499 5.98453V8.4375C6.87499 8.7856 7.01328 9.11944 7.25942 9.36558C7.50556 9.61172 7.8394 9.75 8.18749 9.75ZM2.30937 5.51906C2.57984 6.58266 3.21546 6.75375 3.61109 6.75C3.89754 6.54394 4.23248 6.41555 4.58328 6.37734C4.63271 6.37092 4.68292 6.37441 4.73098 6.38762C4.77905 6.40083 4.82399 6.42349 4.8632 6.45427C4.9024 6.48506 4.93507 6.52335 4.95931 6.56691C4.98354 6.61046 4.99885 6.65842 5.00433 6.70796C5.00981 6.7575 5.00537 6.80764 4.99125 6.85544C4.97713 6.90325 4.95362 6.94776 4.9221 6.98637C4.89057 7.02498 4.85167 7.05692 4.80766 7.08032C4.76365 7.10372 4.71541 7.11811 4.66578 7.12266C4.41288 7.14999 4.17331 7.24993 3.97596 7.41042C3.77862 7.57092 3.63195 7.7851 3.55366 8.02712C3.47537 8.26913 3.4688 8.52864 3.53475 8.77431C3.60069 9.01997 3.73634 9.2413 3.92531 9.41158C4.11428 9.58185 4.34849 9.69379 4.59968 9.73387C4.85086 9.77396 5.10829 9.74049 5.34087 9.6375C5.57345 9.53451 5.77125 9.36639 5.91039 9.15346C6.04953 8.94052 6.12406 8.69186 6.12499 8.4375V5.98453C6.12499 4.72875 3.98328 2.625 2.70312 2.625C2.37734 2.625 2.25031 2.74031 2.18281 2.82656C1.76328 3.36844 2.17437 4.98703 2.30937 5.51906Z" fill="white"/>
</g>
</svg>
